<svg id="Layer_1" data-name="Layer 1" xmlns="http://www.w3.org/2000/svg" viewBox="0 0 23.41 23.41"><defs><style>.cls-1{fill:#fff;}.cls-2{opacity:0.4;}</style></defs><path class="cls-1" d="M116.9,400.76l-.87,3-1.11-3.31a10.27,10.27,0,0,0-6.25-6.42l-3.35-1.21,2.94-.9a10.27,10.27,0,0,0,6.77-6.59l1-3,.79,2.73a10.28,10.28,0,0,0,7.22,7.06l2.69.72-3,.95A10.28,10.28,0,0,0,116.9,400.76Z" transform="translate(-104.32 -381.35)"/><g class="cls-2"><path d="M116,382.35l.79,2.73a10.28,10.28,0,0,0,7.22,7.06l2.69.72-3,.95a10.28,10.28,0,0,0-6.8,6.95l-.87,3-1.11-3.31a10.27,10.27,0,0,0-6.25-6.42l-3.35-1.21,2.94-.9a10.27,10.27,0,0,0,6.77-6.59l1-3m0-1a1,1,0,0,0-1,.68l-1,3a9.3,9.3,0,0,1-6.11,6l-2.94.89a1,1,0,0,0-.71.93,1,1,0,0,0,.66,1l3.35,1.21a9.29,9.29,0,0,1,5.65,5.8l1.1,3.3a1,1,0,0,0,1,.69h0A1,1,0,0,0,117,404l.87-3a9.25,9.25,0,0,1,6.13-6.26l3-.95a1,1,0,0,0,.7-1,1,1,0,0,0-.74-.94l-2.7-.72a9.35,9.35,0,0,1-6.51-6.38l-.79-2.73a1,1,0,0,0-.94-.72Z" transform="translate(-104.32 -381.35)"/></g></svg>